Coordinates
version=1
nRows=8
nColumns=40
inDegrees=yes

Units are S.I. units (second, meters, Newtons, ...)
Angles are in degrees.

endheader
time	pelvis_tilt	pelvis_list	pelvis_rotation	pelvis_tx	pelvis_ty	pelvis_tz	hip_flexion_r	hip_adduction_r	hip_rotation_r	knee_angle_r	knee_angle_r_beta	ankle_angle_r	subtalar_angle_r	mtp_angle_r	hip_flexion_l	hip_adduction_l	hip_rotation_l	knee_angle_l	knee_angle_l_beta	ankle_angle_l	subtalar_angle_l	mtp_angle_l	lumbar_extension	lumbar_bending	lumbar_rotation	arm_flex_r	arm_add_r	arm_rot_r	elbow_flex_r	pro_sup_r	wrist_flex_r	wrist_dev_r	arm_flex_l	arm_add_l	arm_rot_l	elbow_flex_l	pro_sup_l	wrist_flex_l	wrist_dev_l
     41.24500000	     -8.31949457	     -6.82134502	      3.20332545	      0.97540100	      0.92389268	      0.50266569	     16.39493963	      4.40038192	    -15.52690274	     14.83284863	     14.83284863	      9.00459313	     -0.61393944	     -4.92087485	     46.02479878	    -10.35839330	      7.16382877	     63.54329855	     63.54329855	      8.84358351	    -19.19079475	     17.61842029	    -13.01436031	      4.92786983	      3.42297978	     13.97170961	    -16.12796635	     -2.05413486	     61.84972491	     45.27932118	      0.00000000	      0.00000000	      5.13257721	     -6.69267157	     -5.45590482	     29.37075205	     47.16691142	      0.00000000	      0.00000000
     41.25657143	     -8.37066120	     -6.80384425	      3.32228113	      0.97399012	      0.92368055	      0.50241864	     16.01989969	      4.37136697	    -15.55930287	     14.93279543	     14.93279543	      9.51551204	     -0.58023659	     -4.73704291	     46.61427916	    -10.08507864	      7.02728227	     61.17031030	     61.17031030	      8.93385552	    -19.13692816	     17.48530652	    -12.96580441	      4.88352890	      3.71204094	     15.54738529	    -16.86234924	     -1.49606868	     65.49478989	     45.15140739	      0.00000000	      0.00000000	      5.31971099	     -6.38651959	     -5.09816686	     24.59436247	     47.09027842	      0.00000000	      0.00000000
     41.26814286	     -8.40008543	     -6.73619684	      3.40505449	      0.97269965	      0.92351697	      0.50201087	     15.58205502	      4.29928842	    -15.51775641	     14.97324368	     14.97324368	      9.92801106	     -0.59132422	     -4.78706670	     46.97937455	     -9.68347645	      7.00758644	     58.59353330	     58.59353330	      9.02204687	    -19.02882164	     17.40465062	    -12.96722022	      4.77551794	      3.34421920	     18.02473165	    -16.58720914	     -1.82445522	     67.81993503	     45.09943820	      0.00000000	      0.00000000	      3.97534600	     -6.40846737	     -4.99829575	     23.20084803	     47.04351054	      0.00000000	      0.00000000
     41.27971429	     -8.48238409	     -6.69782813	      3.39736467	      0.97145083	      0.92331349	      0.50154185	     15.18182083	      4.26347634	    -15.45978733	     14.97908488	     14.97908488	     10.27812955	     -0.52938777	     -4.85522680	     47.22816046	     -9.29551597	      7.09806130	     55.84386732	     55.84386732	      9.10374709	    -18.80313283	     17.34912966	    -12.87106871	      4.62800676	      3.49586227	     20.34754940	    -16.75628807	     -2.04202929	     69.62702758	     45.05889881	      0.00000000	      0.00000000	      2.82096388	     -6.30181610	     -4.90977955	     22.30194638	     47.00357782	      0.00000000	      0.00000000
     41.29128571	     -8.49632463	     -6.66513861	      3.41700017	      0.97039258	      0.92310394	      0.50081905	     14.68729044	      4.17716259	    -15.63321699	     15.01725208	     15.01725208	     10.91941512	      0.02130032	     -4.51295970	     47.17367182	     -8.95978500	      7.16063340	     52.79049172	     52.79049172	      8.30014419	    -18.48667631	     14.67081879	    -12.96255363	      4.71010770	      3.62919351	     21.91561846	    -17.26616860	     -1.30543944	     74.42711727	     44.90337296	      0.00000000	      0.00000000	      1.86221995	     -6.35406745	     -4.16050202	     20.76882957	     46.80444782	      0.00000000	      0.00000000
     41.30285714	     -8.55130075	     -6.61191682	      3.37298153	      0.96950538	      0.92293168	      0.50001048	     14.15664765	      4.12601660	    -15.54466494	     14.88297377	     14.88297377	     11.25916679	      0.17518211	     -4.52891729	     47.02557906	     -8.52885661	      7.44829185	     49.75726210	     49.75726210	      8.48024015	    -17.91141385	     14.42347156	    -12.88759901	      4.65001478	      3.52384491	     24.35158925	    -16.94565202	     -1.61514917	     76.46161496	     44.86258656	      0.00000000	      0.00000000	      0.52829653	     -6.22585981	     -3.96933980	     20.24106928	     46.72699038	      0.00000000	      0.00000000
     41.31442857	     -8.59880574	     -6.65098018	      3.31238323	      0.96880973	      0.92268608	      0.49911510	     13.55587439	      4.16118877	    -15.59977353	     14.66240627	     14.66240627	     11.65108961	      0.60723150	     -4.49915754	     46.74039138	     -8.28580845	      7.69822971	     46.63792665	     46.63792665	      8.53106357	    -16.99360907	     13.62972414	    -12.81490631	      4.73343630	      3.45356092	     26.64180438	    -16.70978983	     -1.59917480	     79.15877554	     44.79210635	      0.00000000	      0.00000000	     -0.98336575	     -6.18056644	     -3.67628787	     20.25143080	     46.60658709	      0.00000000	      0.00000000
     41.32600000	     -8.63602257	     -6.70362733	      3.16588796	      0.96838575	      0.92238443	      0.49817652	     12.92762306	      4.20297478	    -15.69403371	     14.46144125	     14.46144125	     12.15298048	      1.25300330	     -4.18387260	     46.22604199	     -8.18738922	      7.79822797	     43.36229140	     43.36229140	      8.00121403	    -16.10700394	     11.16263749	    -12.79389014	      4.83173350	      3.88209194	     28.51023197	    -17.16767394	     -1.21137194	     82.52051633	     44.71480131	      0.00000000	      0.00000000	     -2.94288104	     -6.33241240	     -2.28369055	     22.19469053	     46.17789552	      0.00000000	      0.00000000
